<svg xmlns="http://www.w3.org/2000/svg" width="512" height="512" viewBox="0 0 50 50"><g fill="none" stroke-linecap="round" stroke-linejoin="round" stroke-width="2"><path stroke="#344054" d="M20.833 27.083v-4.166m0-12.5v4.166zm0 25v4.166z"/><path stroke="#306CFE" d="M37.5 25a6.25 6.25 0 0 0 6.25 6.25v6.25a2.083 2.083 0 0 1-2.083 2.083H8.333A2.083 2.083 0 0 1 6.25 37.5v-6.25a6.25 6.25 0 0 0 0-12.5V12.5a2.083 2.083 0 0 1 2.083-2.083h33.334A2.083 2.083 0 0 1 43.75 12.5v6.25A6.25 6.25 0 0 0 37.5 25"/></g></svg>