<svg xmlns="http://www.w3.org/2000/svg" width="512" height="512" viewBox="0 0 20 20"><g fill="none"><path fill="url(#fluentColorHistory200)" d="M10 5.5a1 1 0 0 1 1 1V9h1.5a1 1 0 1 1 0 2H10a1 1 0 0 1-1-1V6.5a1 1 0 0 1 1-1"/><path fill="url(#fluentColorHistory201)" d="M6.031 5.5A6 6 0 1 1 4 10a1 1 0 0 0-2 0a8 8 0 1 0 2.5-5.81V3a1 1 0 0 0-2 0v3A1.5 1.5 0 0 0 4 7.5h3a1 1 0 0 0 0-2z"/><defs><linearGradient id="fluentColorHistory200" x1="8.156" x2="20.094" y1="16.45" y2="11.414" gradientUnits="userSpaceOnUse"><stop stop-color="#D373FC"/><stop offset="1" stop-color="#6D37CD"/></linearGradient><linearGradient id="fluentColorHistory201" x1="2" x2="6.295" y1="2.941" y2="20.923" gradientUnits="userSpaceOnUse"><stop stop-color="#0FAFFF"/><stop offset="1" stop-color="#0067BF"/></linearGradient></defs></g></svg>